<svg width="32" height="32" viewBox="0 0 32 32" fill="none" xmlns="http://www.w3.org/2000/svg">
<path fill-rule="evenodd" clip-rule="evenodd" d="M14.2613 1.12862C12.6944 1.34015 10.7499 2.10031 9.25592 3.08527C8.48605 3.59281 6.8908 5.08973 6.45734 5.71147L6.23205 6.03435L7.28672 7.87342L8.34129 9.7125L9.09349 9.71946C10.3198 9.73073 11.1308 10.2317 11.693 11.3254C12.3348 12.5741 11.8619 14.1982 10.6293 14.9779C10.4104 15.1163 10.1091 15.2604 9.95967 15.298L9.68811 15.3663V20.7344V26.1027L10.9234 27.9649L12.1587 29.8271L12.1863 26.2196L12.214 22.6121H15.996H19.7779L19.8056 26.2083L19.8332 29.8045L21.0685 27.947L22.3038 26.0893V20.7278V15.3663L22.0322 15.298C21.8829 15.2604 21.5815 15.1163 21.3626 14.9779C20.13 14.1982 19.6571 12.5741 20.299 11.3254C20.8611 10.2317 21.6721 9.73073 22.8984 9.71946L23.6506 9.7125L24.7052 7.87342L25.7599 6.03435L25.5374 5.71147C25.122 5.10827 23.5158 3.59544 22.7735 3.10802C21.0337 1.96579 19.1073 1.25767 17.2312 1.07069L16.5216 1V10.3312V19.6625H15.996H15.4703V10.3396V1.01675L15.1812 1.03013C15.0222 1.0375 14.6082 1.08175 14.2613 1.12862ZM5.14058 7.88786C4.03324 10.1721 3.70618 12.8865 4.27399 15.08C4.58633 16.2866 5.49918 18.642 6.19273 20.0312C6.70167 21.0506 8.28126 23.8642 8.43706 24.0289C8.4932 24.0884 8.53147 22.3548 8.53126 19.7625L8.53094 15.3961L8.08088 15.2107C6.94662 14.7435 6.32236 13.7995 6.32625 12.5575C6.32877 11.746 6.51716 11.2029 6.99099 10.6405C7.14448 10.4582 7.27011 10.2743 7.27011 10.2316C7.27011 10.1565 5.89058 7.68697 5.63722 7.30847C5.52757 7.14456 5.46628 7.21608 5.14058 7.88786ZM25.5891 8.64475C25.112 9.47769 24.7218 10.1929 24.7218 10.2342C24.7218 10.2755 24.8474 10.4582 25.0009 10.6405C25.4747 11.2029 25.6631 11.746 25.6657 12.5575C25.6696 13.7995 25.0453 14.7435 23.911 15.2107L23.461 15.3961L23.4607 19.7625C23.4604 22.3548 23.4987 24.0884 23.5548 24.0289C23.7107 23.8642 25.2902 21.0506 25.7992 20.0312C26.4927 18.642 27.4056 16.2866 27.7179 15.08C28.1918 13.2494 28.0693 11.2859 27.345 9.1032C27.0852 8.32029 26.5611 7.12243 26.481 7.12854C26.4675 7.1296 26.0662 7.8119 25.5891 8.64475ZM13.3677 26.9311V30.0914H15.996H18.6242V26.9311V23.7709H15.996H13.3677V26.9311Z" fill="white"/>
</svg>
